<svg xmlns="http://www.w3.org/2000/svg" width="16" height="16" viewBox="0 0 16 16">
    <g fill="none" fill-rule="evenodd">
        <g fill="#B2B2B2" fill-rule="nonzero">
            <path d="M339.203 160.565l-3.805-3.958c.978-1.164 1.514-2.627 1.514-4.15 0-3.56-2.896-6.457-6.456-6.457-3.56 0-6.456 2.896-6.456 6.456 0 3.56 2.896 6.456 6.456 6.456 1.337 0 2.61-.403 3.699-1.168l3.835 3.988c.16.167.375.258.606.258.22 0 .427-.083.584-.234.335-.322.345-.856.023-1.191zm-8.747-12.88c2.631 0 4.772 2.14 4.772 4.771s-2.14 4.772-4.772 4.772c-2.631 0-4.772-2.14-4.772-4.772 0-2.631 2.14-4.772 4.772-4.772z" transform="translate(-324 -146)"/>
        </g>
    </g>
</svg>
